<svg xmlns="http://www.w3.org/2000/svg" width="31.501" height="31.5" viewBox="0 0 31.501 31.5"><path d="M21.656,5.906a5.906,5.906,0,1,0-5.906,5.906A5.906,5.906,0,0,0,21.656,5.906Zm-7.285,8.927c-3.65-2.235-9.563-2.849-12.538-3.018A1.7,1.7,0,0,0,0,13.482V27.19a1.692,1.692,0,0,0,1.63,1.664c2.686.141,8.12.657,11.876,2.549a.856.856,0,0,0,1.26-.73V15.538a.819.819,0,0,0-.395-.705Zm15.3-3.018c-2.975.169-8.888.783-12.537,3.018a.834.834,0,0,0-.394.716V30.671A.859.859,0,0,0,18,31.4c3.755-1.89,9.187-2.406,11.872-2.547a1.693,1.693,0,0,0,1.63-1.665V13.482a1.7,1.7,0,0,0-1.834-1.667Z" fill="#cacaca"/></svg>