<svg xmlns="http://www.w3.org/2000/svg" width="31.5" height="31.5" viewBox="0 0 31.5 31.5"><path d="M4.553,12.8H3.938a.984.984,0,0,0-.984.984v.984a.984.984,0,0,0,.984.984h.981a32.963,32.963,0,0,1-.981,7.875h7.875a32.963,32.963,0,0,1-.981-7.875h.981a.984.984,0,0,0,.984-.984v-.984a.984.984,0,0,0-.984-.984H11.2l2.085-5.56a.984.984,0,0,0-.923-1.33h-3.5V3.938h1.477a.492.492,0,0,0,.492-.492V2.461a.492.492,0,0,0-.492-.492H8.859V.492A.492.492,0,0,0,8.367,0H7.383a.492.492,0,0,0-.492.492V1.969H5.414a.492.492,0,0,0-.492.492v.984a.492.492,0,0,0,.492.492H6.891V5.906h-3.5a.984.984,0,0,0-.923,1.33ZM15.206,28.275l-1.425-.712v-.984a.984.984,0,0,0-.984-.984H2.953a.984.984,0,0,0-.984.984v.984l-1.424.712a.984.984,0,0,0-.544.88v1.36a.984.984,0,0,0,.984.984H14.766a.984.984,0,0,0,.984-.984v-1.36a.984.984,0,0,0-.544-.88Zm5.708-9.707-.2,5.057h7.8l-.2-5.058,1.513-1.279a1.969,1.969,0,0,0,.7-1.5v-3.6a.369.369,0,0,0-.369-.369H28.523a.369.369,0,0,0-.369.369v1.6h-1.52v-1.6a.369.369,0,0,0-.369-.369H22.954a.369.369,0,0,0-.369.369v1.6h-1.52v-1.6a.369.369,0,0,0-.369-.369H19.072a.369.369,0,0,0-.369.369v3.605a1.969,1.969,0,0,0,.7,1.5Zm2.711.135a.984.984,0,0,1,1.969,0v1.969H23.625Zm7.331,9.572-1.425-.712v-.984a.984.984,0,0,0-.984-.984H20.672a.984.984,0,0,0-.984.984v.984l-1.424.712a.984.984,0,0,0-.544.88v1.36a.984.984,0,0,0,.984.984H30.516a.984.984,0,0,0,.984-.984v-1.36a.984.984,0,0,0-.544-.88Z" fill="#cacaca"/></svg>