<?xml version="1.0" standalone="no"?>
<!DOCTYPE svg PUBLIC "-//W3C//DTD SVG 1.0//EN" "http://www.w3.org/TR/2001/REC-SVG-20010904/DTD/svg10.dtd">
<svg xmlns="http://www.w3.org/2000/svg" xmlns:xlink="http://www.w3.org/1999/xlink" id="body_1" width="32" height="32">

<g transform="matrix(0.8502271 0 0 0.8502271 -0 4.7961316)">
    <path transform="matrix(1 0 0 1 -2.572 -6.927)"  d="M28.848 6.927C 27.230999 6.927 24.091 9.211 21.425999 9.211C 18.760998 9.211 15.432 6.927 14 6.927C 4.2 6.927 -1.4139996 33.281998 5.913 33.281998C 12.098 33.281998 12.931 25.574997 21.397999 25.574997C 28.248999 25.574997 32.268997 33.188995 36.836 33.188995C 44.162 33.188995 38.644997 6.926996 28.842999 6.926996L28.842999 6.926996L28.848 6.927zM13.433 21.771C 11.354872 21.771 9.481371 20.519167 8.686106 18.599228C 7.890841 16.679289 8.330426 14.469343 9.799884 12.999886C 11.269341 11.530428 13.479286 11.090841 15.399225 11.8861065C 17.319164 12.681371 18.571 14.554872 18.571 16.633C 18.570448 19.47041 16.27041 21.770447 13.433 21.771zM27.064 18.916C 26.43329 18.916002 25.921999 18.40471 25.921999 17.774002C 25.921999 17.143293 26.43329 16.632002 27.064 16.632002C 27.694708 16.632002 28.206 17.143293 28.206 17.774C 28.206264 18.07696 28.086031 18.367586 27.871807 18.58181C 27.657583 18.796034 27.366957 18.916267 27.064 18.916zM30.564 22.341C 30.101473 22.343428 29.683157 22.066626 29.504564 21.639965C 29.325972 21.213303 29.422375 20.721048 29.748714 20.393272C 30.075054 20.065496 30.566881 19.966934 30.994322 20.143654C 31.421762 20.320372 31.7004 20.737469 31.7 21.2C 31.700554 21.829767 31.190767 22.340895 30.561 22.342zM30.564 15.49C 30.101473 15.49243 29.683159 15.215628 29.504564 14.788966C 29.325972 14.362305 29.422373 13.87005 29.748714 13.542274C 30.075054 13.2144985 30.566881 13.115936 30.994322 13.292654C 31.421762 13.469373 31.7004 13.886469 31.7 14.349C 31.700554 14.978767 31.190767 15.489897 30.561 15.491zM33.989 18.914999C 33.527103 18.914999 33.110687 18.63676 32.93393 18.210024C 32.757168 17.783289 32.854874 17.292093 33.18148 16.965483C 33.50809 16.638874 33.999287 16.541168 34.42602 16.717928C 34.85276 16.894688 35.130997 17.311102 35.130997 17.772999C 35.13153 18.07665 35.011005 18.367992 34.796104 18.58252C 34.5812 18.797047 34.28965 18.917065 33.986 18.916zM13.433 13.778C 12.27826 13.778 11.237224 14.4735985 10.795324 15.540439C 10.353425 16.607279 10.597687 17.835266 11.414211 18.65179C 12.230736 19.468313 13.458722 19.712576 14.525562 19.270676C 15.592402 18.828775 16.288 17.787739 16.288 16.633C 16.288 15.056226 15.009773 13.777999 13.433 13.778z" stroke="none" fill="#CACACA" fill-rule="nonzero" />
</g>
</svg>