<?xml version="1.0" standalone="no"?>
<!DOCTYPE svg PUBLIC "-//W3C//DTD SVG 1.0//EN" "http://www.w3.org/TR/2001/REC-SVG-20010904/DTD/svg10.dtd">
<svg xmlns="http://www.w3.org/2000/svg" xmlns:xlink="http://www.w3.org/1999/xlink" id="body_1" width="32" height="32">

<g transform="matrix(1.0143595 0 0 1.0047411 0 0)">
	<g transform="matrix(1 0 0 1 -19.307 -25.17)">
        <path d="M27.427 56.519L19.807 25.67L50.354 34.465L27.427 56.519z" stroke="#FFFFFF" stroke-width="1" fill="none" />
        <path transform="matrix(1 0 0 1 -17.797 -20.544)"  d="M52.872 50.612L56.679 66.041L41.414 61.641L52.872 50.612z" stroke="#FFFFFF" stroke-width="1" fill="none" />
        <path transform="matrix(1 0 0 1 -44.79 -46.039)"  d="M76.077 89.23L74.186005 81.565L81.770004 83.742004L76.077 89.23z" stroke="#FFFFFF" stroke-width="1" fill="none" />
        <path transform="matrix(1 0 0 1 -9.363 -10.282)"  d="M36.867 38.153L38.758 45.818L31.174 43.64L36.867 38.153z" stroke="#FFFFFF" stroke-width="1" fill="none" />
        <path transform="matrix(1 0 0 1 -80.207 -30.69)"  d="M122.879 62.93L124.77 70.595L117.186 68.418L122.879 62.93z" stroke="#FFFFFF" stroke-width="1" fill="none" />
        <path transform="matrix(1 0 0 1 -27.036 -81.864)"  d="M58.324 125.06L60.215 132.72499L52.631 130.54799L58.324 125.06z" stroke="#FFFFFF" stroke-width="1" fill="none" />
	</g>
</g>
</svg>