<svg xmlns="http://www.w3.org/2000/svg" width="31.5" height="31.5" viewBox="0 0 31.5 31.5"><path d="M28.178,8.958a14.172,14.172,0,0,1-5.309,19.031l4.325-12.5a13.39,13.39,0,0,0,1.076-5.071,11.114,11.114,0,0,0-.092-1.457M17.7,9.094c.849-.039,1.617-.138,1.617-.138a.592.592,0,0,0-.088-1.18s-2.3.177-3.78.177c-1.4,0-3.741-.2-3.741-.2a.583.583,0,0,0-.1,1.162s.709.08,1.477.118l2.2,6.044-3.111,9.293L7.027,9.056c.852-.039,1.62-.131,1.62-.131a.59.59,0,0,0-.085-1.176S6.27,7.93,4.789,7.93c-.263,0-.575-.011-.906-.02A14.362,14.362,0,0,1,15.75,1.595a14.1,14.1,0,0,1,9.563,3.718c-.06,0-.119-.012-.185-.012A2.452,2.452,0,0,0,22.75,7.813a6.623,6.623,0,0,0,1.391,3.322,7.463,7.463,0,0,1,1.168,3.907,17.024,17.024,0,0,1-1.078,4.566L22.82,24.314,17.7,9.076ZM15.75,29.9a14.171,14.171,0,0,1-4-.574L16,16.985l4.351,11.927a2.112,2.112,0,0,0,.1.2,14.171,14.171,0,0,1-4.7.8M1.589,15.75A14.087,14.087,0,0,1,2.817,9.988l6.752,18.5A14.167,14.167,0,0,1,1.589,15.75M15.75,0A15.75,15.75,0,1,0,31.5,15.75,15.771,15.771,0,0,0,15.75,0" fill="#cacaca"/></svg>